<?xml version="1.0" standalone="no"?>
<!DOCTYPE svg PUBLIC "-//W3C//DTD SVG 20010904//EN"
 "http://www.w3.org/TR/2001/REC-SVG-20010904/DTD/svg10.dtd">
<svg version="1.0" xmlns="http://www.w3.org/2000/svg"
 width="1280.000000pt" height="640.000000pt" viewBox="0 0 1280.000000 640.000000"
 preserveAspectRatio="xMidYMid meet">
<metadata>
Created by potrace 1.15, written by Peter Selinger 2001-2017
</metadata>
<g transform="translate(0.000000,640.000000) scale(0.100000,-0.100000)"
fill="#000000" stroke="none">
<path d="M11370 3554 c-133 -9 -295 -28 -560 -65 l-285 -41 -4525 -9 -4525
-10 -230 -29 c-126 -16 -432 -46 -680 -65 -247 -20 -451 -37 -452 -38 -1 -2
157 -15 350 -31 194 -15 402 -34 462 -41 96 -11 102 -13 50 -14 -102 -2 -114
-31 -21 -51 29 -6 118 -18 197 -26 194 -21 1453 -31 4154 -34 1139 -2 2804 -6
3700 -9 l1630 -7 220 -31 c241 -35 585 -56 728 -46 48 3 86 8 83 10 -2 2 -48
8 -102 13 -146 12 -404 43 -400 47 2 2 81 -1 175 -7 194 -12 418 -2 666 30
205 27 214 26 133 -12 -38 -18 -68 -36 -68 -40 0 -16 214 -8 308 11 105 22
174 57 203 104 24 41 24 68 -1 100 -12 15 -20 40 -20 62 0 49 -45 94 -121 123
-55 20 -373 71 -574 91 -114 12 -413 21 -495 15z m288 -151 c-49 -2 -127 -2
-175 0 -49 1 -9 3 87 3 96 0 136 -2 88 -3z m-340 -10 c-10 -2 -28 -2 -40 0
-13 2 -5 4 17 4 22 1 32 -1 23 -4z m519 1 c-3 -3 -12 -4 -19 -1 -8 3 -5 6 6 6
11 1 17 -2 13 -5z m-610 -10 c-3 -3 -12 -4 -19 -1 -8 3 -5 6 6 6 11 1 17 -2
13 -5z m710 0 c-3 -3 -12 -4 -19 -1 -8 3 -5 6 6 6 11 1 17 -2 13 -5z m108 -80
c39 -9 82 -18 97 -18 l28 -1 -23 -17 c-28 -21 -146 -53 -257 -69 -136 -20
-533 -17 -665 5 -60 10 -116 21 -123 25 -25 14 81 60 174 75 138 23 152 24
434 21 208 -3 280 -8 335 -21z"/>
</g>
</svg>
